<svg id="Layer_1" data-name="Layer 1" xmlns="http://www.w3.org/2000/svg" viewBox="0 0 320 320"><defs><style>.cls-1{fill:#100f0d;}</style></defs><path class="cls-1" d="M161.17,0C117.4,0,111.91.19,94.72,1S65.85,4.48,55.6,8.46A79,79,0,0,0,27.05,27.05,79,79,0,0,0,8.46,55.6c-4,10.25-6.71,22-7.49,39.12S0,117.4,0,161.17s.19,49.26,1,66.45,3.51,28.87,7.49,39.13a79.07,79.07,0,0,0,18.59,28.54A79,79,0,0,0,55.6,313.88c10.25,4,22,6.71,39.12,7.49s22.68,1,66.45,1,49.26-.18,66.45-1,28.87-3.5,39.13-7.49a82.45,82.45,0,0,0,47.13-47.13c4-10.26,6.71-22,7.49-39.13s1-22.68,1-66.45-.18-49.26-1-66.45-3.5-28.87-7.49-39.12a79,79,0,0,0-18.59-28.55A79.07,79.07,0,0,0,266.75,8.46c-10.26-4-22-6.71-39.13-7.49S204.94,0,161.17,0Zm0,29c43,0,48.13.16,65.13.94,15.71.72,24.25,3.34,29.93,5.55a49.92,49.92,0,0,1,18.53,12.06,49.81,49.81,0,0,1,12.05,18.53C289,71.8,291.65,80.33,292.36,96c.78,17,.94,22.1.94,65.13s-.16,48.13-.94,65.13c-.71,15.71-3.34,24.25-5.55,29.93a53.31,53.31,0,0,1-30.58,30.58c-5.68,2.21-14.22,4.84-29.93,5.55-17,.78-22.09.94-65.13.94S113,293.14,96,292.36c-15.71-.71-24.24-3.34-29.92-5.55a49.81,49.81,0,0,1-18.53-12.05,49.92,49.92,0,0,1-12.06-18.53C33.32,250.55,30.7,242,30,226.3c-.78-17-.94-22.09-.94-65.13S29.2,113,30,96c.72-15.71,3.34-24.24,5.55-29.92A49.76,49.76,0,0,1,47.59,47.59,49.84,49.84,0,0,1,66.12,35.53C71.8,33.32,80.33,30.7,96,30c17-.78,22.1-.94,65.13-.94"/><path class="cls-1" d="M161.17,214.9a53.73,53.73,0,1,1,53.73-53.73A53.73,53.73,0,0,1,161.17,214.9Zm0-136.49a82.77,82.77,0,1,0,82.77,82.76,82.76,82.76,0,0,0-82.77-82.76m105.38-3.27A19.35,19.35,0,1,1,247.21,55.8a19.34,19.34,0,0,1,19.34,19.34"/></svg>