<svg id="Layer_1" data-name="Layer 1" xmlns="http://www.w3.org/2000/svg" viewBox="0 0 320 320"><path d="M257.82,82.08A18.64,18.64,0,0,1,262.65,87a18.54,18.54,0,0,1,1.75,7.54,58.34,58.34,0,0,0,0,8.15,59.91,59.91,0,0,0,0,8.15,58.48,58.48,0,0,0,0,8.16,59.91,59.91,0,0,0,0,8.15,58.34,58.34,0,0,0,0,8.15,59.91,59.91,0,0,0,0,8.15,58.48,58.48,0,0,0,0,8.16,59.91,59.91,0,0,0,0,8.15,58.34,58.34,0,0,0,0,8.15,59.91,59.91,0,0,0,0,8.15,58.48,58.48,0,0,0,0,8.16,59.91,59.91,0,0,0,0,8.15,58.34,58.34,0,0,0,0,8.15,59.91,59.91,0,0,0,0,8.15,58.34,58.34,0,0,0,0,8.15,22.76,22.76,0,0,1-1.28,8.14,19.45,19.45,0,0,1-5.4,5.67,30.74,30.74,0,0,1-8,3.31l-8.15.47H78.48a71.62,71.62,0,0,1-8.16-.48C64.74,232.58,60,230,56.89,225c-1.18-2.59-1.22-5.37-1.29-8.14v-106c0-5.09.17-10.17.08-15.26a17.93,17.93,0,0,1,2-9.19,22.19,22.19,0,0,1,4.53-4.34c5-3.18,10.54-3.76,16.24-3.8a65.34,65.34,0,0,0,8.16,0,48.22,48.22,0,0,0,8.15,0,65.34,65.34,0,0,0,8.16,0,48.22,48.22,0,0,0,8.15,0,65.34,65.34,0,0,0,8.16,0,48.22,48.22,0,0,0,8.15,0,65.34,65.34,0,0,0,8.16,0,48.22,48.22,0,0,0,8.15,0,65.34,65.34,0,0,0,8.16,0,48.22,48.22,0,0,0,8.15,0,65.18,65.18,0,0,0,8.15,0,48.22,48.22,0,0,0,8.15,0,65.34,65.34,0,0,0,8.16,0,48.22,48.22,0,0,0,8.15,0,65.34,65.34,0,0,0,8.16,0,48.22,48.22,0,0,0,8.15,0,65.34,65.34,0,0,0,8.16,0,48.22,48.22,0,0,0,8.15,0,65.34,65.34,0,0,0,8.16,0,48.22,48.22,0,0,0,8.15,0c2.74.25,5.51,0,8.24.61A30.21,30.21,0,0,1,257.82,82.08ZM251.11,119a53.81,53.81,0,0,0,0-8.13,1.85,1.85,0,0,0-.27-1.84l-17.43,13.26a49.76,49.76,0,0,0-5.9,4.41,6.94,6.94,0,0,0-2.25,1.7q-8.34,5.87-16.32,12.21a19.55,19.55,0,0,0-3.76,2.82,25.61,25.61,0,0,0-4.4,3.29,57.66,57.66,0,0,0-6.54,4.89,3.8,3.8,0,0,0-1.61,1.21l-5,3.6L200.72,166a9,9,0,0,0,2.51,1.87,47.59,47.59,0,0,0,5.65,4.24l15.71,11.79,1,.75,7.13,5.37,3.85,2.84,4.32,3.26,10.36,7.9-.18-3.55a53.81,53.81,0,0,0,0-8.13,56,56,0,0,0,0-8.19,53.68,53.68,0,0,0,0-8.12,55.7,55.7,0,0,0,0-8.17,53.68,53.68,0,0,0,0-8.12,54.48,54.48,0,0,0,0-8.18,53.81,53.81,0,0,0,0-8.13,54.48,54.48,0,0,0,0-8.18,53.68,53.68,0,0,0,0-8.12A56,56,0,0,0,251.11,119ZM68.84,135.3V204l4.34-3.46a40.74,40.74,0,0,0,5.33-4,29.59,29.59,0,0,0,4.88-3.68,13.46,13.46,0,0,0,3.28-2.42,92.36,92.36,0,0,0,8.19-6.13c5.74-4,11.33-8.28,16.87-12.59l4.32-3.26,3.85-2.85,7.12-5.37,1-.74a26.09,26.09,0,0,0,4.19-3.23l-4.85-3.42a7.2,7.2,0,0,0-2.25-1.7,49.86,49.86,0,0,0-5.91-4.41c-8-6.28-16.21-12.35-24.46-18.32a7.91,7.91,0,0,0-2.41-1.77,42.57,42.57,0,0,0-5.76-4.34A27.18,27.18,0,0,0,82.17,119a20.31,20.31,0,0,0-3.72-2.79l-9.62-7.35v18.3C68.84,129.85,68.84,132.58,68.84,135.3ZM160,171.07a39.84,39.84,0,0,1-8.18-1.44l-5.29-2.54a6.24,6.24,0,0,0-2.05-1.51c-.67-.55-1.35-1.09-2-1.66a1.17,1.17,0,0,0-1.75-.11c-1.71,1.4-3.47,2.73-5.2,4.08-5.58,3.89-11,8-16.32,12.2a39.07,39.07,0,0,0-5.42,4.06,10,10,0,0,0-2.74,2,90.09,90.09,0,0,0-8.18,6.11q-8.58,6.08-16.83,12.59a29.1,29.1,0,0,0-4.37,3.27,22,22,0,0,0-3.8,2.84l-7.18,5.36c-2.72,1.63-2.47,5.06,0,6.84s5.07,1.46,7.75,1.31h163.1c2.5.13,5,.43,7.28-1.07,2.64-1.75,3-4.32.88-6.64a80.8,80.8,0,0,0-8.15-6.14,10.32,10.32,0,0,0-2.76-2.06,40.25,40.25,0,0,0-5.4-4.05c-5.34-4.21-10.76-8.29-16.32-12.21a1.9,1.9,0,0,0-1.19-.9,65.72,65.72,0,0,0-7-5.2,9.61,9.61,0,0,0-2.78-2.07,32,32,0,0,0-4.89-3.69q-8.24-6.5-16.8-12.56l-.76-.55c-1.26-1-2.56-1.94-3.75-3a2,2,0,0,0-3.08-.06,31,31,0,0,1-9.29,5.52A49.66,49.66,0,0,1,160,171.07ZM249.74,90c-2.35-2.28-5.27-2-8.17-1.81H78.48c-2.89-.15-5.83-.49-8.18,1.8-2,2-2.13,4.37,0,6.1,2.63,2.12,5.42,4,8.14,6l.81.58a76.7,76.7,0,0,0,7.31,5.5c1.21,1,2.41,1.94,3.65,2.86q10.39,7.73,20.8,15.41a3.82,3.82,0,0,0,1.65,1.21,53.53,53.53,0,0,0,6.51,4.9,18.57,18.57,0,0,0,3.67,2.74,27.23,27.23,0,0,0,4.49,3.36c5.13,4.09,10.4,8,15.74,11.81a7.13,7.13,0,0,0,2.2,1.62,55.63,55.63,0,0,0,6,4.5,53.45,53.45,0,0,0,4.46,3.39,7.37,7.37,0,0,0,8,.19,16.71,16.71,0,0,0,4.52-3.2,52.77,52.77,0,0,0,6.51-4.9,3.61,3.61,0,0,0,1.65-1.2c8.47-6.08,16.8-12.36,25.06-18.72l6-4.48,2.21-1.63,15.72-11.8a28.45,28.45,0,0,0,4.5-3.38,19.11,19.11,0,0,0,3.66-2.72,77.31,77.31,0,0,0,7.29-5.46l.87-.64c2.66-2,5.36-3.84,8-5.86C251.83,94.46,251.83,92.06,249.74,90Z"/></svg>