<svg id="Layer_1" data-name="Layer 1" xmlns="http://www.w3.org/2000/svg" viewBox="0 0 320 239.33"><path d="M309.92,5.88a28.27,28.27,0,0,1,7.39,7.52A28.2,28.2,0,0,1,320,25a93.11,93.11,0,0,0,0,12.5,93,93,0,0,0,0,12.49,93.11,93.11,0,0,0,0,12.5,93,93,0,0,0,0,12.49,93.11,93.11,0,0,0,0,12.5,93,93,0,0,0,0,12.49,93,93,0,0,0,0,12.49,93.11,93.11,0,0,0,0,12.5,93,93,0,0,0,0,12.49,93.11,93.11,0,0,0,0,12.5,93,93,0,0,0,0,12.49,93,93,0,0,0,0,12.49,93.11,93.11,0,0,0,0,12.5,93,93,0,0,0,0,12.49,93.11,93.11,0,0,0,0,12.5c-.13,4.24-.3,8.47-2,12.46a29.65,29.65,0,0,1-8.27,8.69,46.66,46.66,0,0,1-12.26,5.08l-12.49.73H35.06a111.24,111.24,0,0,1-12.51-.74C14,236.52,6.68,232.64,2,224.84c-1.8-4-1.86-8.23-2-12.48V50c.06-7.8.26-15.59.12-23.38a27.6,27.6,0,0,1,3.09-14.1,34.45,34.45,0,0,1,6.94-6.65C17.76,1,26.31.07,35,0A96.71,96.71,0,0,0,47.55,0,74.42,74.42,0,0,0,60,0,96.71,96.71,0,0,0,72.55,0,74.42,74.42,0,0,0,85,0a96.55,96.55,0,0,0,12.5,0A74.42,74.42,0,0,0,110,0a96.71,96.71,0,0,0,12.51,0A74.42,74.42,0,0,0,135,0a96.55,96.55,0,0,0,12.5,0A74.42,74.42,0,0,0,160,0a96.71,96.71,0,0,0,12.51,0A74.42,74.42,0,0,0,185,0a96.55,96.55,0,0,0,12.5,0A74.42,74.42,0,0,0,210,0a96.71,96.71,0,0,0,12.51,0A74.42,74.42,0,0,0,235,0a96.71,96.71,0,0,0,12.51,0A74.42,74.42,0,0,0,260,0a96.55,96.55,0,0,0,12.5,0A74.42,74.42,0,0,0,285,0c4.21.38,8.45,0,12.63.93A46.24,46.24,0,0,1,309.92,5.88ZM299.64,62.41a83.45,83.45,0,0,0,0-12.45,2.88,2.88,0,0,0-.42-2.83L272.51,67.46a75.33,75.33,0,0,0-9,6.75A10.79,10.79,0,0,0,260,76.82q-12.78,9-25,18.71a30.43,30.43,0,0,0-5.77,4.33,39.27,39.27,0,0,0-6.74,5,89.33,89.33,0,0,0-10,7.5,5.82,5.82,0,0,0-2.47,1.86l-7.73,5.51,20.14,14.78a14.39,14.39,0,0,0,3.84,2.87,72.93,72.93,0,0,0,8.66,6.49L259,162l1.6,1.14,10.93,8.23,5.89,4.37,6.63,5c5.11,3.9,10.21,7.79,15.88,12.1l-.28-5.43a83.72,83.72,0,0,0,0-12.47,84.66,84.66,0,0,0,0-12.54,83.45,83.45,0,0,0,0-12.45,84.39,84.39,0,0,0,0-12.52,83.45,83.45,0,0,0,0-12.45,86,86,0,0,0,0-12.54,83.45,83.45,0,0,0,0-12.45,86,86,0,0,0,0-12.54,83.45,83.45,0,0,0,0-12.45A86.18,86.18,0,0,0,299.64,62.41Zm-279.36,25V192.7L27,187.39a61.72,61.72,0,0,0,8.15-6.12,45.4,45.4,0,0,0,7.49-5.65,20.29,20.29,0,0,0,5-3.71,140,140,0,0,0,12.56-9.39C69,156.32,77.54,149.83,86,143.23l6.62-5,5.9-4.37,10.92-8.23,1.59-1.14a39.6,39.6,0,0,0,6.42-4.94L110,114.31a10.76,10.76,0,0,0-3.45-2.61,74.65,74.65,0,0,0-9-6.75C85.24,95.31,72.69,86,60,76.86a11.84,11.84,0,0,0-3.69-2.7,64.23,64.23,0,0,0-8.83-6.66,41.09,41.09,0,0,0-6.8-5.08A31.75,31.75,0,0,0,35,58.13L20.28,46.86V87.44ZM160,142.27a62.82,62.82,0,0,1-12.53-2.22l-8.11-3.9a9.66,9.66,0,0,0-3.14-2.3c-1-.85-2.08-1.68-3.09-2.55-.86-.74-1.63-1-2.68-.16-2.61,2.14-5.3,4.17-8,6.25-8.54,6-16.83,12.25-25,18.7a60.48,60.48,0,0,0-8.3,6.22,15,15,0,0,0-4.2,3.14,137.62,137.62,0,0,0-12.54,9.37q-13.15,9.28-25.8,19.29a44.71,44.71,0,0,0-6.69,5,34.41,34.41,0,0,0-5.83,4.35l-11,8.22c-4.17,2.5-3.77,7.75,0,10.48s7.77,2.23,11.88,2H285c3.83.2,7.7.67,11.17-1.64,4-2.68,4.56-6.61,1.34-10.17A122.89,122.89,0,0,0,285,203a15.88,15.88,0,0,0-4.23-3.15,60.43,60.43,0,0,0-8.28-6.21q-12.25-9.68-25-18.72a2.81,2.81,0,0,0-1.82-1.37,101.12,101.12,0,0,0-10.68-8,14.9,14.9,0,0,0-4.26-3.17,49.08,49.08,0,0,0-7.49-5.66q-12.63-10-25.75-19.25l-1.17-.84c-1.93-1.53-3.93-3-5.75-4.62-1.64-1.46-2.92-1.62-4.72-.09a48,48,0,0,1-14.24,8.46A79.81,79.81,0,0,1,160,142.27ZM297.54,18c-3.6-3.5-8.09-3-12.52-2.78H35.07C30.63,15,26.13,14.48,22.52,18c-3.13,3.05-3.26,6.69,0,9.34,4,3.24,8.31,6.18,12.48,9.25l1.25.87a116.21,116.21,0,0,0,11.19,8.44c1.86,1.47,3.7,3,5.6,4.39Q69,62.1,85,73.9a5.94,5.94,0,0,0,2.52,1.85,83.64,83.64,0,0,0,10,7.5,28.61,28.61,0,0,0,5.63,4.21A41.5,41.5,0,0,0,110,92.6c7.86,6.27,16,12.24,24.12,18.1a11.06,11.06,0,0,0,3.38,2.49,83,83,0,0,0,9.16,6.89,79,79,0,0,0,6.84,5.2,11.27,11.27,0,0,0,12.2.28c2.69-1.1,4.78-3,6.92-4.89a80.3,80.3,0,0,0,10-7.52,5.42,5.42,0,0,0,2.51-1.84c13-9.31,25.76-18.93,38.42-28.68l9.12-6.87,3.4-2.5,24.09-18.08A43,43,0,0,0,267,50a29.29,29.29,0,0,0,5.61-4.17,121.26,121.26,0,0,0,11.17-8.37l1.33-1c4.07-3,8.21-5.89,12.2-9C300.74,24.85,300.74,21.17,297.54,18Z"/></svg>